<svg width="216" height="32" viewBox="0 0 216 32" fill="none" xmlns="http://www.w3.org/2000/svg">
<path d="M0.072 4.296H4.328V25H0.072V4.296ZM9.295 9.096H13.455V25H9.295V9.096ZM20.847 8.744C21.8283 8.744 22.735 8.872 23.567 9.128C24.399 9.384 25.1243 9.77867 25.743 10.312C26.3617 10.8453 26.8417 11.528 27.183 12.36C27.5243 13.1707 27.695 14.1413 27.695 15.272V25H23.535V16.008C23.535 14.664 23.2043 13.6827 22.543 13.064C21.903 12.424 20.847 12.104 19.375 12.104C18.2657 12.104 17.263 12.3173 16.367 12.744C15.471 13.1707 14.7457 13.7147 14.191 14.376C13.6363 15.016 13.3163 15.688 13.231 16.392L13.199 14.76C13.3057 14.0133 13.551 13.288 13.935 12.584C14.319 11.88 14.831 11.24 15.471 10.664C16.1323 10.0667 16.911 9.59733 17.807 9.256C18.703 8.91467 19.7163 8.744 20.847 8.744ZM34.703 8.744C35.6843 8.744 36.591 8.872 37.423 9.128C38.255 9.384 38.9803 9.77867 39.599 10.312C40.2177 10.8453 40.6977 11.528 41.039 12.36C41.4017 13.1707 41.583 14.1413 41.583 15.272V25H37.423V16.008C37.423 14.664 37.0923 13.6827 36.431 13.064C35.7697 12.424 34.703 12.104 33.231 12.104C32.1217 12.104 31.119 12.3173 30.223 12.744C29.327 13.1707 28.6017 13.7147 28.047 14.376C27.4923 15.016 27.183 15.688 27.119 16.392L27.055 14.664C27.1617 13.96 27.4177 13.256 27.823 12.552C28.2283 11.848 28.7617 11.208 29.423 10.632C30.0843 10.056 30.8523 9.59733 31.727 9.256C32.623 8.91467 33.615 8.744 34.703 8.744ZM56.9415 25.384C55.5335 25.384 54.3282 25.1387 53.3255 24.648C52.3442 24.136 51.5442 23.4747 50.9255 22.664C50.3068 21.832 49.8482 20.9253 49.5495 19.944C49.2508 18.9627 49.1015 18.0027 49.1015 17.064C49.1015 15.8907 49.2402 14.8027 49.5175 13.8C49.8162 12.7973 50.2748 11.9227 50.8935 11.176C51.5122 10.408 52.3122 9.81067 53.2935 9.384C54.2962 8.95733 55.5122 8.744 56.9415 8.744C58.5415 8.744 59.9815 9.096 61.2615 9.8C62.5415 10.504 63.5548 11.4853 64.3015 12.744C65.0695 13.9813 65.4535 15.4213 65.4535 17.064C65.4535 18.7493 65.0695 20.2213 64.3015 21.48C63.5335 22.7173 62.5095 23.6773 61.2295 24.36C59.9495 25.0427 58.5202 25.384 56.9415 25.384ZM55.5975 22.152C56.7282 22.152 57.7095 21.9387 58.5415 21.512C59.3948 21.0853 60.0455 20.4987 60.4935 19.752C60.9628 18.984 61.1975 18.088 61.1975 17.064C61.1975 15.528 60.7068 14.2907 59.7255 13.352C58.7655 12.4133 57.3895 11.944 55.5975 11.944C54.4668 11.944 53.4322 12.1467 52.4935 12.552C51.5762 12.9573 50.8508 13.544 50.3175 14.312C49.7842 15.0587 49.5175 15.976 49.5175 17.064C49.5175 18.088 49.7628 18.984 50.2535 19.752C50.7442 20.4987 51.4482 21.0853 52.3655 21.512C53.2828 21.9387 54.3602 22.152 55.5975 22.152ZM45.3575 9.096H49.3255L49.5175 13.32V31.4H45.3575V9.096ZM68.5138 9.096H72.6738V25H68.5138V9.096ZM78.7858 12.52C77.5911 12.52 76.5564 12.7547 75.6818 13.224C74.8071 13.672 74.1031 14.2267 73.5698 14.888C73.0364 15.5493 72.6631 16.1893 72.4498 16.808L72.4178 15.048C72.4391 14.792 72.5244 14.4187 72.6738 13.928C72.8231 13.416 73.0471 12.872 73.3458 12.296C73.6444 11.6987 74.0391 11.1333 74.5298 10.6C75.0204 10.0453 75.6178 9.59733 76.3218 9.256C77.0258 8.91467 77.8471 8.744 78.7858 8.744V12.52ZM90.7335 25.384C88.7282 25.384 86.9575 25.064 85.4215 24.424C83.9068 23.784 82.7228 22.856 81.8695 21.64C81.0162 20.4027 80.5895 18.888 80.5895 17.096C80.5895 15.304 81.0162 13.7893 81.8695 12.552C82.7228 11.2933 83.9068 10.344 85.4215 9.704C86.9575 9.064 88.7282 8.744 90.7335 8.744C92.7388 8.744 94.4882 9.064 95.9815 9.704C97.4962 10.344 98.6802 11.2933 99.5335 12.552C100.387 13.7893 100.814 15.304 100.814 17.096C100.814 18.888 100.387 20.4027 99.5335 21.64C98.6802 22.856 97.4962 23.784 95.9815 24.424C94.4882 25.064 92.7388 25.384 90.7335 25.384ZM90.7335 22.184C91.8428 22.184 92.8348 21.992 93.7095 21.608C94.6055 21.2027 95.3095 20.6267 95.8215 19.88C96.3335 19.112 96.5895 18.184 96.5895 17.096C96.5895 16.008 96.3335 15.08 95.8215 14.312C95.3095 13.5227 94.6162 12.9253 93.7415 12.52C92.8668 12.1147 91.8642 11.912 90.7335 11.912C89.6242 11.912 88.6215 12.1147 87.7255 12.52C86.8295 12.9253 86.1148 13.512 85.5815 14.28C85.0695 15.048 84.8135 15.9867 84.8135 17.096C84.8135 18.184 85.0695 19.112 85.5815 19.88C86.0935 20.6267 86.7975 21.2027 87.6935 21.608C88.5895 21.992 89.6028 22.184 90.7335 22.184ZM112.032 22.28H110.528L116.352 9.096H120.896L113.248 25H109.312L101.824 9.096H106.4L112.032 22.28ZM137.104 19.72H141.136C140.965 20.808 140.506 21.7787 139.76 22.632C139.034 23.4853 138.042 24.1573 136.784 24.648C135.525 25.1387 133.989 25.384 132.176 25.384C130.149 25.384 128.357 25.064 126.8 24.424C125.242 23.7627 124.026 22.8133 123.152 21.576C122.277 20.3387 121.84 18.8453 121.84 17.096C121.84 15.3467 122.266 13.8533 123.12 12.616C123.973 11.3573 125.157 10.3973 126.672 9.736C128.208 9.07467 130 8.744 132.048 8.744C134.138 8.744 135.877 9.07467 137.264 9.736C138.65 10.3973 139.674 11.4 140.336 12.744C141.018 14.0667 141.306 15.7627 141.2 17.832H126.032C126.138 18.6427 126.437 19.3787 126.928 20.04C127.44 20.7013 128.122 21.224 128.976 21.608C129.85 21.992 130.885 22.184 132.08 22.184C133.402 22.184 134.501 21.96 135.376 21.512C136.272 21.0427 136.848 20.4453 137.104 19.72ZM131.856 11.912C130.32 11.912 129.072 12.2533 128.112 12.936C127.152 13.5973 126.533 14.4187 126.256 15.4H137.072C136.965 14.3333 136.453 13.4907 135.536 12.872C134.64 12.232 133.413 11.912 131.856 11.912Z" fill="#FF610B"/>
<path d="M160.974 0.903999L164.334 2.12L154.574 28.84L151.246 27.624L160.974 0.903999Z" fill="white"/>
<path d="M178.915 20.488V16.936H192.611V20.488H178.915ZM173.763 25L183.491 4.296H188.099L197.923 25H193.283L184.771 6.344H186.819L178.371 25H173.763ZM201.541 4.296H205.797V25H201.541V4.296ZM215.596 21.352V25H210.764V21.352H215.596Z" fill="#6833FF"/>
</svg>
